# xmcd
#
# Track frame offsets: 
#        150
#        14027
#        37624
#        57626
#        87860
#        115539
#        147303
#        180439
#        206833
#        223160
#        255289
#
# Disc length: 4440 seconds
#
# Revision: 1
# Processed by: cddbd v1.5.2PL0 Copyright (c) Steve Scherf et al.
# Submitted via: ExactAudioCopy v0.99pb5
#
DISCID=9611560b
DTITLE=Gospel pour 100 voix - Past, Present and Future
DYEAR=2004
DGENRE=Gospel
TTITLE0=Respect (feat. Ophélie Winter)
TTITLE1=Happy days
TTITLE2=I could Sing of your Love
TTITLE3=Hosanna
TTITLE4=We Are the World
TTITLE5=Speak Lord
TTITLE6=Wonderfull World
TTITLE7=Can't Give Up Now
TTITLE8=Amazing Grace
TTITLE9=Total Praise
TTITLE10=Data Track
EXTD=
EXTT0=
EXTT1=
EXTT2=
EXTT3=
EXTT4=
EXTT5=
EXTT6=
EXTT7=
EXTT8=
EXTT9=
EXTT10=
PLAYORDER=
